<svg xmlns="http://www.w3.org/2000/svg" width="199.517" height="83.205" viewBox="0 0 199.517 83.205">
  <g id="Logo_ACA" data-name="Logo ACA" transform="translate(-152.358 -627.245)">
    <g id="Grupo_2" data-name="Grupo 2" transform="translate(152.358 627.245)">
      <path id="Trazado_1" data-name="Trazado 1" d="M175.991,738.471h5.637a.37.37,0,0,0,.338-.519l-11.756-26.673a.369.369,0,0,0-.338-.22h-5.389a.37.37,0,0,0-.338.22l-11.756,26.673a.37.37,0,0,0,.338.519h5.637a.37.37,0,0,0,.337-.218l2.272-5.048h12.408l2.272,5.048a.37.37,0,0,0,.337.218M163.408,727.8l3.77-8.376,3.77,8.376Z" transform="translate(-152.358 -683.983)" fill="#fff"/>
      <path id="Trazado_2" data-name="Trazado 2" d="M397.695,738.471h5.637a.37.37,0,0,0,.338-.519l-11.756-26.673a.369.369,0,0,0-.338-.22h-5.389a.37.37,0,0,0-.338.22l-11.756,26.673a.37.37,0,0,0,.338.519h5.637a.37.37,0,0,0,.337-.218l2.272-5.048h12.408l2.272,5.048a.37.37,0,0,0,.337.218M385.112,727.8l3.77-8.376,3.77,8.376Z" transform="translate(-302.442 -683.983)" fill="#fff"/>
      <g id="Grupo_1" data-name="Grupo 1" transform="translate(18.622)">
        <path id="Trazado_3" data-name="Trazado 3" d="M243.4,638.219a30.581,30.581,0,0,1,24.476,12.214.371.371,0,0,0,.515.078l8.252-6.055a.37.37,0,0,0,.078-.519,41.607,41.607,0,0,0-66.643,0,.369.369,0,0,0,.078.519l8.252,6.055a.371.371,0,0,0,.515-.078A30.581,30.581,0,0,1,243.4,638.219" transform="translate(-210.003 -627.245)" fill="#fff"/>
        <path id="Trazado_4" data-name="Trazado 4" d="M243.4,824.936a30.581,30.581,0,0,1-24.476-12.214.37.37,0,0,0-.515-.078l-8.252,6.055a.369.369,0,0,0-.078.519,41.607,41.607,0,0,0,66.643,0,.37.37,0,0,0-.078-.519l-8.252-6.055a.37.37,0,0,0-.515.078A30.581,30.581,0,0,1,243.4,824.936" transform="translate(-210.003 -752.705)" fill="#fff"/>
      </g>
      <path id="Trazado_5" data-name="Trazado 5" d="M272.191,726.844a12,12,0,1,1,9.462-19.39.368.368,0,0,0,.508.07l5.575-4.09a.37.37,0,0,0,.074-.524,19.654,19.654,0,1,0,0,23.862.371.371,0,0,0-.074-.525l-5.574-4.09a.369.369,0,0,0-.509.071,11.983,11.983,0,0,1-9.461,4.617" transform="translate(-220.175 -673.238)" fill="#fff"/>
    </g>
    <g id="Grupo_3" data-name="Grupo 3" transform="translate(268.554 654.321)">
      <path id="Trazado_6" data-name="Trazado 6" d="M512.052,711.062h11.005a8.638,8.638,0,0,1,5.757,1.879,6.558,6.558,0,0,1,2.232,5.247,5.589,5.589,0,0,1-3.446,5.6v.157a6.6,6.6,0,0,1,4.463,6.618,7.435,7.435,0,0,1-2.311,5.8,9.267,9.267,0,0,1-6.421,2.114H512.052Zm10.182,11.748a6.063,6.063,0,0,0,3.916-1.174,4.16,4.16,0,0,0,1.41-3.447,3.782,3.782,0,0,0-1.254-3.015,5.6,5.6,0,0,0-3.642-1.057H515.42v8.693Zm.7,12.571a6.193,6.193,0,0,0,4.072-1.292,4.266,4.266,0,0,0,1.527-3.525A4.36,4.36,0,0,0,527.09,727a6.323,6.323,0,0,0-4.152-1.214H515.42v9.595Z" transform="translate(-512.052 -711.062)" fill="#fff"/>
      <path id="Trazado_7" data-name="Trazado 7" d="M588.631,751.836a5.733,5.733,0,0,1-1.918-4.426,5.667,5.667,0,0,1,2.075-4.5c1.371-1.174,3.408-1.762,6.187-1.762a18.3,18.3,0,0,1,4.935.705v-2a4.129,4.129,0,0,0-1.137-2.975,5.724,5.724,0,0,0-6.734-.157,3.464,3.464,0,0,0-1.174,2.545h-3.174a5.629,5.629,0,0,1,2.154-4.621,9.426,9.426,0,0,1,11.239.2,6.472,6.472,0,0,1,2.037,4.934v13.471h-2.781l-.234-2.82h-.157c-1.254,2.114-3.329,3.172-6.266,3.172A7.092,7.092,0,0,1,588.631,751.836Zm9.712-2.546a5.144,5.144,0,0,0,1.567-3.8v-1.018a16.7,16.7,0,0,0-4.935-.7c-3.289,0-4.933,1.214-4.933,3.6a3.079,3.079,0,0,0,1.1,2.506,4.416,4.416,0,0,0,3.132.979A5.457,5.457,0,0,0,598.343,749.29Z" transform="translate(-562.594 -725.833)" fill="#fff"/>
      <path id="Trazado_8" data-name="Trazado 8" d="M655.6,751.718a6.327,6.327,0,0,1-2.349-5.091h3.289a3.483,3.483,0,0,0,1.331,2.977,5.6,5.6,0,0,0,3.565,1.057c3.055,0,4.582-.94,4.582-2.858,0-1.449-1.018-2.428-3.055-2.859l-4-.744a6.662,6.662,0,0,1-3.759-1.958,5.16,5.16,0,0,1-1.331-3.642,5.006,5.006,0,0,1,2-4.112,8.26,8.26,0,0,1,5.286-1.605,8.515,8.515,0,0,1,5.56,1.762,5.723,5.723,0,0,1,2.154,4.7h-3.211a3.447,3.447,0,0,0-1.291-2.78,5.463,5.463,0,0,0-3.212-.9,5.155,5.155,0,0,0-2.977.744,2.527,2.527,0,0,0-1.135,2.193c0,1.527,1.174,2.466,3.485,2.82l3.132.587a9.023,9.023,0,0,1,4.309,1.958,5.162,5.162,0,0,1,1.371,3.838,4.889,4.889,0,0,1-2.271,4.229,9.662,9.662,0,0,1-5.639,1.566A8.78,8.78,0,0,1,655.6,751.718Z" transform="translate(-607.641 -725.833)" fill="#fff"/>
      <path id="Trazado_9" data-name="Trazado 9" d="M717.576,750.7a11.177,11.177,0,0,1-2.388-7.442,11.679,11.679,0,0,1,2.311-7.479,8.138,8.138,0,0,1,6.734-2.9,7.9,7.9,0,0,1,6.383,2.7,10.655,10.655,0,0,1,2.271,7.049v1.606H718.634a6.914,6.914,0,0,0,1.45,4.659,5.109,5.109,0,0,0,4.19,1.762,6.26,6.26,0,0,0,3.329-.822,3.742,3.742,0,0,0,1.724-2.389h3.289a6.416,6.416,0,0,1-2.741,4.425,9.322,9.322,0,0,1-5.6,1.723A8.273,8.273,0,0,1,717.576,750.7Zm11.906-9.2a6.112,6.112,0,0,0-1.331-4.112,4.89,4.89,0,0,0-3.918-1.567,5.171,5.171,0,0,0-4.072,1.567,6.2,6.2,0,0,0-1.488,4.112Z" transform="translate(-649.567 -725.833)" fill="#fff"/>
    </g>
  </g>
</svg>
